<?xml version="1.0" encoding="UTF-8"?>
<svg width="256" height="256" viewBox="0 0 256 256" xmlns="http://www.w3.org/2000/svg">
  <!-- Фон -->
  <rect width="256" height="256" fill="#ffffff" stroke="#000000" stroke-width="2"/>
  
  <!-- Внешний треугольник (красный) -->
  <polygon points="128,20 220,200 36,200" 
           fill="#ff0000" 
           stroke="#000000" 
           stroke-width="4"/>
  
  <!-- Внутренний треугольник (белый) -->
  <polygon points="128,35 205,185 51,185" 
           fill="#ffffff" 
           stroke="#000000" 
           stroke-width="2"/>
  
  <!-- Символ пламени -->
  <g transform="translate(128,110) scale(2,2)">
    <path d="M0,-20 C-8,-15 -8,-5 0,0 C8,-5 8,-15 0,-20 Z" 
          fill="#ff4500" 
          stroke="#000000" 
          stroke-width="1"/>
    <path d="M-5,-10 C-2,-8 -2,-2 0,2 C2,-2 2,-8 -5,-10 Z" 
          fill="#ffa500"/>
    <path d="M5,-8 C3,-6 3,0 5,4 C7,0 7,-6 5,-8 Z" 
          fill="#ff6500"/>
  </g>
  
  <!-- Текст "ОПАСНО" -->
  <text x="128" y="160" 
        font-family="Arial, sans-serif" 
        font-size="14" 
        font-weight="bold" 
        text-anchor="middle" 
        fill="#000000">ОПАСНО</text>
        
  <!-- Текст "DANGEROUS" -->
  <text x="128" y="175" 
        font-family="Arial, sans-serif" 
        font-size="12" 
        font-weight="bold" 
        text-anchor="middle" 
        fill="#000000">DANGEROUS</text>
</svg>
